<mxfile host="app.diagrams.net" modified="2023-12-13T05:22:06.266Z" agent="Mozilla/5.0 (Windows NT 10.0; Win64; x64) AppleWebKit/537.36 (KHTML, like Gecko) Chrome/120.0.0.0 Safari/537.36" etag="L-0U-EYrUmgVLEiY5Bjg" version="22.1.8" type="github">
  <diagram name="Page-1" id="VLC8R4KVJ3cNXHcV-09f">
    <mxGraphModel dx="1290" dy="574" grid="1" gridSize="10" guides="1" tooltips="1" connect="1" arrows="1" fold="1" page="1" pageScale="1" pageWidth="850" pageHeight="1100" math="0" shadow="0">
      <root>
        <mxCell id="0" />
        <mxCell id="1" parent="0" />
        <mxCell id="pCG21Fdg0DUQvxfNWMpT-1" style="edgeStyle=orthogonalEdgeStyle;rounded=0;orthogonalLoop=1;jettySize=auto;html=1;entryX=0.5;entryY=0;entryDx=0;entryDy=0;" edge="1" parent="1" target="pCG21Fdg0DUQvxfNWMpT-4">
          <mxGeometry relative="1" as="geometry">
            <mxPoint x="586" y="495" as="targetPoint" />
            <mxPoint x="588" y="415" as="sourcePoint" />
          </mxGeometry>
        </mxCell>
        <mxCell id="pCG21Fdg0DUQvxfNWMpT-2" style="edgeStyle=orthogonalEdgeStyle;rounded=0;orthogonalLoop=1;jettySize=auto;html=1;exitX=0.5;exitY=1;exitDx=0;exitDy=0;" edge="1" parent="1">
          <mxGeometry relative="1" as="geometry">
            <mxPoint x="586" y="555" as="sourcePoint" />
            <mxPoint x="586" y="555" as="targetPoint" />
          </mxGeometry>
        </mxCell>
        <mxCell id="pCG21Fdg0DUQvxfNWMpT-3" style="edgeStyle=orthogonalEdgeStyle;rounded=0;orthogonalLoop=1;jettySize=auto;html=1;" edge="1" parent="1" source="pCG21Fdg0DUQvxfNWMpT-4" target="pCG21Fdg0DUQvxfNWMpT-6">
          <mxGeometry relative="1" as="geometry">
            <mxPoint x="586.5" y="655" as="targetPoint" />
          </mxGeometry>
        </mxCell>
        <mxCell id="pCG21Fdg0DUQvxfNWMpT-4" value="&lt;font style=&quot;font-size: 15px;&quot;&gt;Ask User for Name&lt;/font&gt;" style="shape=parallelogram;perimeter=parallelogramPerimeter;whiteSpace=wrap;html=1;fixedSize=1;" vertex="1" parent="1">
          <mxGeometry x="485" y="475" width="205" height="80" as="geometry" />
        </mxCell>
        <mxCell id="pCG21Fdg0DUQvxfNWMpT-5" value="" style="edgeStyle=orthogonalEdgeStyle;rounded=0;orthogonalLoop=1;jettySize=auto;html=1;" edge="1" parent="1" source="pCG21Fdg0DUQvxfNWMpT-6" target="pCG21Fdg0DUQvxfNWMpT-9">
          <mxGeometry relative="1" as="geometry" />
        </mxCell>
        <mxCell id="pCG21Fdg0DUQvxfNWMpT-6" value="&lt;font style=&quot;font-size: 16px;&quot;&gt;Create GameLog.csv with player name&lt;/font&gt;" style="rounded=0;whiteSpace=wrap;html=1;" vertex="1" parent="1">
          <mxGeometry x="485" y="625" width="207" height="90" as="geometry" />
        </mxCell>
        <mxCell id="pCG21Fdg0DUQvxfNWMpT-7" style="edgeStyle=orthogonalEdgeStyle;rounded=0;orthogonalLoop=1;jettySize=auto;html=1;entryX=0.5;entryY=0;entryDx=0;entryDy=0;" edge="1" parent="1" source="pCG21Fdg0DUQvxfNWMpT-9" target="pCG21Fdg0DUQvxfNWMpT-17">
          <mxGeometry relative="1" as="geometry" />
        </mxCell>
        <mxCell id="pCG21Fdg0DUQvxfNWMpT-8" style="edgeStyle=orthogonalEdgeStyle;rounded=0;orthogonalLoop=1;jettySize=auto;html=1;entryX=1;entryY=0.5;entryDx=0;entryDy=0;" edge="1" parent="1" source="pCG21Fdg0DUQvxfNWMpT-9" target="pCG21Fdg0DUQvxfNWMpT-11">
          <mxGeometry relative="1" as="geometry" />
        </mxCell>
        <mxCell id="pCG21Fdg0DUQvxfNWMpT-9" value="&lt;span style=&quot;font-size: 16px;&quot;&gt;Return Case value function, write shuffled_cases to Gamelog.csv&lt;/span&gt;" style="whiteSpace=wrap;html=1;rounded=0;" vertex="1" parent="1">
          <mxGeometry x="477.25" y="765" width="222.5" height="95" as="geometry" />
        </mxCell>
        <mxCell id="pCG21Fdg0DUQvxfNWMpT-10" style="edgeStyle=orthogonalEdgeStyle;rounded=0;orthogonalLoop=1;jettySize=auto;html=1;" edge="1" parent="1" source="pCG21Fdg0DUQvxfNWMpT-11" target="pCG21Fdg0DUQvxfNWMpT-13">
          <mxGeometry relative="1" as="geometry">
            <mxPoint x="226" y="900" as="targetPoint" />
          </mxGeometry>
        </mxCell>
        <mxCell id="pCG21Fdg0DUQvxfNWMpT-11" value="Case Values Function" style="rounded=0;whiteSpace=wrap;html=1;" vertex="1" parent="1">
          <mxGeometry x="151" y="785" width="150" height="55" as="geometry" />
        </mxCell>
        <mxCell id="pCG21Fdg0DUQvxfNWMpT-12" style="edgeStyle=orthogonalEdgeStyle;rounded=0;orthogonalLoop=1;jettySize=auto;html=1;" edge="1" parent="1" source="pCG21Fdg0DUQvxfNWMpT-13" target="pCG21Fdg0DUQvxfNWMpT-15">
          <mxGeometry relative="1" as="geometry">
            <mxPoint x="226" y="970" as="targetPoint" />
          </mxGeometry>
        </mxCell>
        <mxCell id="pCG21Fdg0DUQvxfNWMpT-13" value="Create a dictonary to store case numbers &amp;amp; values" style="rounded=0;whiteSpace=wrap;html=1;" vertex="1" parent="1">
          <mxGeometry x="151" y="880" width="150" height="50" as="geometry" />
        </mxCell>
        <mxCell id="pCG21Fdg0DUQvxfNWMpT-14" style="edgeStyle=orthogonalEdgeStyle;rounded=0;orthogonalLoop=1;jettySize=auto;html=1;" edge="1" parent="1" source="pCG21Fdg0DUQvxfNWMpT-15">
          <mxGeometry relative="1" as="geometry">
            <mxPoint x="226" y="1050" as="targetPoint" />
          </mxGeometry>
        </mxCell>
        <mxCell id="pCG21Fdg0DUQvxfNWMpT-15" value="Create a list with all values" style="rounded=0;whiteSpace=wrap;html=1;" vertex="1" parent="1">
          <mxGeometry x="151" y="960" width="150" height="50" as="geometry" />
        </mxCell>
        <mxCell id="pCG21Fdg0DUQvxfNWMpT-16" value="Shuffle the list values" style="rounded=0;whiteSpace=wrap;html=1;" vertex="1" parent="1">
          <mxGeometry x="151" y="1050" width="150" height="50" as="geometry" />
        </mxCell>
        <mxCell id="pCG21Fdg0DUQvxfNWMpT-17" value="&lt;span style=&quot;font-size: 16px;&quot;&gt;Create list for values_left&lt;/span&gt;" style="whiteSpace=wrap;html=1;rounded=0;" vertex="1" parent="1">
          <mxGeometry x="477.25" y="905" width="222.5" height="95" as="geometry" />
        </mxCell>
      </root>
    </mxGraphModel>
  </diagram>
</mxfile>
